<?xml version="1.0" encoding="UTF-8"?><svg xmlns="http://www.w3.org/2000/svg" xmlns:xlink="http://www.w3.org/1999/xlink" viewBox="0 0 1600 1475.58"><defs><style>.cls-1{fill:url(#linear-gradient);}.cls-2{fill:#fff;}</style><linearGradient id="linear-gradient" x1="116.74" y1="160.59" x2="526.3" y2="160.59" gradientUnits="userSpaceOnUse"><stop offset="0" stop-color="#cb9b51"/><stop offset=".26" stop-color="#f6e27a"/><stop offset=".46" stop-color="#f6f2c0"/><stop offset=".66" stop-color="#f4de78"/><stop offset="1" stop-color="#cb9b51"/></linearGradient></defs><g id="Layer_1"><path class="cls-1" d="m526.3,127.91c-1.49.29-16.09,6-22.63,9.24-5.21,2.58-10.54,5.34-14.91,9.08-4.46,3.81-5.74,9.32-3.25,15.15,4.3,10.08-1,31.45-1.27,32.16-.23-.13-.44-.27-.74-.36-2.7-.76-5.53-1.25-8.33-1.49-5.56-.48-9.8-2.6-11.68-8.22-.21-.63-.79-1.14-1.68-2.38-1.45,4.64-2.69,8.66-.67,12.52,4.37,8.38,11.79,6.66,19.27,5.29-2.51,1.87-5.04,3.65-7.8,4.16-3.68.68-5.87,2.71-7.05,5.82-1.08,2.86-1.82,5.94-2.15,8.98-.42,3.76-.27,7.59-.36,11.39-.33.1-.65.21-.98.31-.7-.73-1.53-1.37-2.08-2.19-5.84-8.64-11.46-17.44-17.51-25.93-3.06-4.29-6.48-8.5-10.44-11.93-3.81-3.3-9.34-3.6-13.47-1.73,9.49-8.87,10.73-20.81,2.36-30.9-4.57-5.51-10.86-9.18-17.68-12.07-1.8-.76-3.64-1.45-5.46-2.17-.18.24-.37.48-.55.72.61.74,1.19,1.5,1.82,2.23,4.07,4.67,5.88,10.1,5.03,15.87-2.25,15.3-11.87,25.25-27.68,30.36-.94.31-2.15.36-2.9.73.28-1.03.63-2.18,1.13-3.65,1.58-4.68,1.46-4.54-3.14-6.21-2.88-1.04-4.01-.54-4.52,2.48-.42,2.5-1.37,4.91-2.17,7.33-.23.68-.77,1.26-1.16,1.88-.45-.07-.9-.15-1.34-.22,3.18-4.39.72-8.37.14-12.54-.94-6.74.63-12.61,7.23-16.11.3-.16.41-.66.8-1.31-5.51-.76-10.72-.98-14.73,2.87-7.43,7.13-3.87,14.77-.49,22.47-2.1-2.42-3.75-4.97-5.08-7.68-1.87-3.83-4.12-4.88-8.03-3.14-1.91.85-3.72,1.99-5.49,3.12-2.99,1.91-5.89,3.98-8.9,5.87-.91.57-2.05.78-3.09,1.15,1.53-3.43,3.66-6.09,5.42-8.98,2.62-4.3,2-7.46-1.36-11.1-1.64-1.77-3.02-3.83-4.25-5.91-.67-1.14-.78-2.6-1.15-3.92,7.89,8.55,14.18,11.25,20.28,8.29,4.33-2.1,7.91-8.56,7.03-12.67-.21.02-.48-.04-.63.07-7.9,5.26-12.41,5.11-20.28-.43-.26-.18-.6-.27-.9-.41.05-.08.11-.09.16-.17,3.83-6.47,9.56-10.62,16.4-13.52,11.81-5,26.49-2.6,32.35,7.89.19.34.67.53,1.65,1.27-.3-7.07-1.62-13.17-4.23-18.96-5.91-13.09-18.99-17.57-31.56-10.6-.66.37-1.22.8-1.85,1.19.36-.25.6-.57.97-.81,1.63-1.07,2.93-3.06,3.73-4.9,3.44-7.94.54-15.02-3.66-21.67-4.15-6.56-8.69-12.87-13.04-19.3-1.96-2.91-3.86-5.86-5.92-8.99-.73.61-1.3.93-1.67,1.42-5.34,7.08-10.86,14.05-15.91,21.33-3.13,4.52-6.1,9.3-8.18,14.35-2.39,5.8-.9,11.15,2.9,15.64-5.04-2.84-10.49-4.1-16.62-2.71-12.49,2.83-19.26,19.03-19.1,29.69,3.57-2.53,6.83-5.78,10.77-7.44,12.26-5.18,29.28.91,37.15,12.77.54.81.98,1.77,1.51,2.55-1.46.3-2.88.84-4.28,1.84-5.51,3.9-13.97,4.02-18.54-1.46-.21-.26-.67-.3-1.09-.48-.32,5.2,2.65,11.44,6.91,13.33,8.83,3.92,14.65-1.3,20.2-7.37.1,1.04.11,1.96-.31,2.56-1.85,2.6-3.58,5.35-5.83,7.57-2.68,2.64-3.28,5.7-2.11,8.82,1.02,2.75,3.03,5.13,4.6,7.68.59.95,1.18,1.89,1.77,2.83-.22.23-.44.46-.66.69-1.11-.59-2.3-1.07-3.32-1.79-4.08-2.88-8-6.01-12.18-8.72-4.73-3.06-7.18-2.12-9.88,2.74-1.48,2.68-3.52,5.05-5.31,7.56-.34-.2-.68-.4-1.02-.6,4.93-7.08,8.71-14.37,2.26-22.35-3.06-3.78-10.61-5.31-14.96-3.49.29.36.51.76.84,1,6.17,4.52,8.24,9.68,6.11,17.07-1.08,3.73-2.6,7.23-.99,11.14.1.25-.24.68-.38,1.03-1.62-3.43-2.7-6.87-3.34-10.39-.45-2.49-1.5-2.93-3.65-2.11-.82.31-1.73.37-2.59.55-1.89.41-2.59,1.46-2.01,3.4.73,2.45,1.19,4.97,2,7.38.01.04,0,.06.02.1-.51-.43-1.07-.77-1.64-.92-10.85-2.78-18.66-9.19-23.71-18.17-5.89-10.46-6.82-20.97,2.36-30.59.35-.37.5-.91.92-1.7-.95.05-1.61-.09-2.06.14-5.98,2.98-12.48,5.35-17.78,9.16-12.33,8.86-13.86,22.5-3.88,33.53-5.19-2.37-10.43-1.55-15.49,2.81-2.74,2.37-5.06,5.29-7.25,8.2-6.67,8.87-13.16,17.86-19.78,26.77-.71.96-1.77,1.66-3.15,2.93-.07-1.58-.09-2.33-.13-3.08-.31-5.62-.22-11.3-1.06-16.85-.6-4.02-2.82-7.22-7.51-8.29-2.7-.62-5.1-2.53-7.64-3.86.13-.45.26-.89.39-1.34,6.92,2.49,13.87,4.39,18.92-2.84,2.88-4.13,1.77-8.59.13-13.18-.54.48-.88.65-1.01.92-3.37,7.13-6.57,8.92-14.27,8.9-2.52,0-5.05.81-7.57,1.41-.25-.87-.49-1.75-.79-2.6-3.18-9.05-4.1-18.15-.67-27.35.93-2.48,2.33-4.89,2.67-7.45.87-6.64-2.12-11.98-7.69-15.1-10.24-5.74-20.85-10.84-31.31-16.19-.25-.13-.61-.03-1.17-.04,12.82,23.44,25.45,46.54,38.08,69.64.11,1.05.15,2.13.62,2.99,6.49,12,13.14,23.92,19.6,35.94.5.93,1,1.38,1.56,1.54.01.02,0,.03.02.05,2.2,4.16,4.24,8.39,6.22,12.64.96,2.05,2.5,2.72,4.7,2.59,10.84-.62,78.9-24.95,113.27-23.25,84.11,4.16,112.33,19.45,143.36,37.1,1.96,1.12,15.71-17.77,18.08-21.7.48-.8,50.1-83.51,64.06-106.27Z"/></g><g id="Layer_2"><path class="cls-2" d="m747.12,754.77c-2.23-34.74-20.69-59.38-52.68-73.55-16.03-7.1-32.98-9.98-50.36-9.96-20.88.03-41.05,4.3-60.63,11.5-33.45,12.3-61.43,31.96-85.73,56.61-43.98-77-75.02-162.17-131.96-236.83,31.2,7.5,55.52-1.15,78.5-16.2,67.36-44.12,89.23-131.7,32.3-197.33-11.98-13.81-36.48-39.62-49.47-45.33-17.21-6.35-33.16-14.07-49.99-18.12-93.28-22.47-178.74-2.12-256.29,51.81-38.03,26.45-63.33,63.72-75.19,109.07-12.29,46.99,6.9,86.91,51.87,104.79,43.96,17.48,88.82,15.76,131.31-4.04,60.59-28.23,87.47-106.91,59.14-166.67-11.05-23.31-29.05-36.76-55.06-37.61-28.85-.94-53.55,8.01-68.62,34.4-10.63,18.63-5.61,40.26,11.87,49.74-1.84-4.41-2.87-7.47-4.35-10.3-9.26-17.74-6.92-33.76,7.11-47.73,35.04-34.9,89.95-23.59,106.1,22.81,15.18,43.6,6.34,83.67-21.85,119.93-39.09,50.28-126.52,51.85-167.33,31.45-37.1-18.54-52.76-51-43.8-92,6.35-29.05,19.8-54.85,39.62-76.45,70.12-76.46,159.88-97.89,259.28-88.74,24.55,2.26,47.84,11.5,69.5,23.54-82.46,67.51-121.1,511.23-294.1,401.34,24.62,43.12,80.61,49.96,118.74,16.45,32.26-28.35,50.05-66.16,64.46-105.21,25.08-67.97,47.19-137.04,72.83-204.79,13.17-34.8,31.26-67.74,47.36-102.03,42.71,28.17,57.52,87.86,50.71,136.18-4.92,34.88-20.79,57.06-47.49,79.53-28.48,23.96-46.26,34.19-84.65,17.73,61.24,80.59,92.32,173.07,141.99,258.34-3.97,4.33-7.85,8.78-11.63,13.37-32.13,39.11-55.05,83.24-71.5,130.9-15.8,45.8-26.36,92.56-25.47,141.36.33,18.26,2.54,36.29,8.76,53.56,12.31,34.15,35.26,57.18,70.93,66.27,7.78,1.98,15.88,2.7,24.02,4.02-.32.71-.65,1.54-1.07,2.33-6.78,12.76-14.05,25.28-20.26,38.3-17.79,37.32-31.42,75.95-34.25,117.64-1.5,22.09.46,43.75,9.96,64.18,11.47,24.67,33.68,35.96,58.86,29.46,19.1-4.93,33.49-16.75,44.65-32.65,14.45-20.57,25.01-43.23,32.49-67.05,14.2-45.25,27.78-90.71,40.76-136.33,18.02-63.33,33.53-127.41,57.44-188.95.67-1.72-.01-3.97-.06-5.98-1.76.08-3.64-.22-5.27.29-21.49,6.81-43.02,13.43-65.4,16.68-1.81.26-4.19-.37-5.68-1.45-7.79-5.62-15.9-10.56-25.17-13.35-10.63-3.2-20.96-2.97-30.68,2.96-7.93,4.84-8.29,15.32-.23,19.82,4.48,2.5,9.84,4.02,14.97,4.64,13.36,1.6,26.39-1.41,39.35-4.24,2.25-.49,3.31.02,4.54,1.78,13.34,19.18,18.36,40.3,11.54,62.72-12.97,42.58-42.88,67.59-85.37,78.28-5.99,1.51-12.35,1.53-18.54,2.24,17.75-36.18,41.63-66.35,72.99-90.81-2.33.85-4.71,1.58-6.98,2.57-10.62,4.65-19.38,11.94-27.63,19.89-19.61,18.89-35.68,40.66-50.77,63.17-2.34,3.5-4.61,4.17-8.45,3.58-24.68-3.8-43.11-16.9-56.38-37.65-14.91-23.32-19.89-49.46-21.02-76.56-1.04-24.9,1.61-49.54,6.12-74.01,10.89-59.15,31.1-114.75,63.47-165.66,6.29-9.9,13.08-19.38,20.13-28.63,10.27,19.1,37.39,60.58,51.84,79.08,14.99,20.14,33.47,36.54,54.97,40.02,29.13,7.77,57.02,2.42,82.22-13.02,42.71-26.16,61.85-65.65,58.67-115.14Zm-196.11,244.55c-1.04-.15-2.08-.44-3.08-.77-2.85-.95-5.8-2.13-5.59-5.75.21-3.65,2.36-6.57,6.03-6.92,5.22-.5,10.58-.71,15.77-.08,9.27,1.11,18.11,3.93,25.99,9.21.75.5,1.39,1.17,2.78,2.36-14.46,2.4-28.09,3.97-41.9,1.96Zm-49.23,158.66c1.01-2.17,2.3-2.62,4.52-2.78,42.34-3.01,76.47-21.26,99.83-56.86,20.45-31.16,20.07-63.32-.2-94.92-.42-.66-.82-1.32-1.51-2.42,15.53-3.4,30.71-6.73,46.37-10.17-4.88,14.83-10.04,28.89-14.14,43.25-13.53,47.38-26.87,94.82-39.91,142.35-15.32,55.84-30.73,111.64-50.97,165.96-3.42,9.19-6.42,18.61-10.73,27.37-8.47,17.21-21.76,29.4-40.8,33.91-14.95,3.55-27.88-3-35.19-16.75-5.55-10.44-7.12-21.85-8.1-33.38-3.03-35.49,3.56-69.72,13.85-103.41,9.7-31.76,22.98-62.09,36.97-92.14Zm218.27-363.24c-13.77,51.91-57,80.94-96.58,82.08-43.22.37-51.99-17.6-74.89-47.43-11.74-19.56-28.78-49.28-42.16-74.48,12.43-15.23,26.04-29.42,41.63-41.82,30.42-24.19,64.66-37.79,104.3-34.07,27.95,2.63,49.35,15.83,61.97,41.21,11.88,23.87,12.47,49.1,5.73,74.51Z"/><g><path class="cls-2" d="m497.54,628.06c-14.22,0-24.1-2.78-29.64-8.32-5.55-5.54-8.32-12.3-8.32-20.28,0-10.05,2.68-20.8,8.06-32.24,5.37-11.44,10.48-21.14,15.34-29.12,5.54-8.32,13-16.98,22.36-26,9.36-9.01,19.58-16.64,30.68-22.88,11.09-6.24,21.84-9.36,32.24-9.36,9.01,0,15.25,2.17,18.72,6.5,3.46,4.34,5.2,9.45,5.2,15.34,0,10.75-3.21,19.59-9.62,26.52-6.42,6.94-14.3,12.57-23.66,16.9-9.36,4.34-18.38,7.89-27.04,10.66-5.2,1.39-11.27,2.78-18.2,4.16-6.94,1.39-13.52,2.08-19.76,2.08-2.43,6.24-4.34,12.31-5.72,18.2-1.39,5.9-2.08,11.27-2.08,16.12,0,5.9,1.47,10.75,4.42,14.56,2.94,3.82,7.88,5.72,14.82,5.72,2.77,0,6.06-.34,9.88-1.04,3.81-.69,7.97-1.73,12.48-3.12,10.4-3.46,20.62-9.01,30.68-16.64,10.05-7.62,19.32-15.86,27.82-24.7,8.49-8.84,14.99-16.2,19.5-22.1,1.04,1.04,1.56,2.26,1.56,3.64,0,1.74-1.22,4.51-3.64,8.32-6.94,9.71-15.95,19.76-27.04,30.16-11.1,10.4-23.4,19.16-36.92,26.26-13.52,7.1-27.56,10.66-42.12,10.66Zm.52-76.44c4.5.35,9.62.26,15.34-.26,5.72-.52,11.35-1.64,16.9-3.38,14.21-4.16,24.52-10.83,30.94-20.02,6.41-9.18,9.62-17.42,9.62-24.7,0-4.16-.87-7.62-2.6-10.4-1.74-2.77-4.51-4.16-8.32-4.16-10.06,0-19.07,3.73-27.04,11.18-7.98,7.46-14.91,16.04-20.8,25.74-5.9,9.71-10.58,18.38-14.04,26Z"/><path class="cls-2" d="m615.06,625.46c-3.47,0-6.33-.7-8.58-2.08-2.26-1.38-3.38-3.98-3.38-7.8,0-4.85,1.3-10.57,3.9-17.16,2.6-6.58,5.54-13.17,8.84-19.76,3.29-6.58,5.8-11.96,7.54-16.12,2.42-4.85,5.46-11.18,9.1-18.98,3.64-7.8,7.1-15.25,10.4-22.36,3.29-7.1,5.63-12.04,7.02-14.82-4.86,5.2-10.66,11.7-17.42,19.5-6.76,7.8-13.09,15.34-18.98,22.62-5.9,7.28-10.4,13-13.52,17.16-1.04,1.39-1.91,2.08-2.6,2.08s-1.04-.86-1.04-2.6c0-2.77.86-5.37,2.6-7.8,6.58-8.32,13.95-17.68,22.1-28.08,8.14-10.4,15.51-20.02,22.1-28.86,6.58-8.84,10.74-14.64,12.48-17.42,3.81-.69,9.44-1.73,16.9-3.12,7.45-1.38,12.56-3.29,15.34-5.72,1.04-1.04,2.08-1.56,3.12-1.56.69,0,1.12.61,1.3,1.82.17,1.22-.26,2.52-1.3,3.9-2.08,2.43-5.72,8.32-10.92,17.68-5.2,9.36-10.66,19.68-16.38,30.94-5.72,11.27-11.01,21.41-15.86,30.42-4.86,9.36-9.02,18.38-12.48,27.04-3.47,8.67-5.2,14.91-5.2,18.72,0,4.86,2.42,7.28,7.28,7.28,4.5,0,10.31-2.77,17.42-8.32,7.1-5.54,14.3-12.22,21.58-20.02,7.28-7.8,13.69-14.99,19.24-21.58,1.73-2.08,3.9-4.59,6.5-7.54,2.6-2.94,4.24-4.76,4.94-5.46.69.7,1.04,1.91,1.04,3.64-.35,2.43-1.22,4.77-2.6,7.02-1.39,2.26-2.78,4.25-4.16,5.98-7.28,9.02-15.26,18.29-23.92,27.82-8.67,9.54-18.2,17.51-28.6,23.92-10.4,6.42-21.67,9.62-33.8,9.62Zm90.48-200.2c-4.86,0-8.32-1.56-10.4-4.68-1.39-1.73-2.08-3.98-2.08-6.76,0-5.54,2.6-10.05,7.8-13.52,3.81-2.08,7.28-3.12,10.4-3.12,5.2,0,8.84,1.56,10.92,4.68,1.38,1.74,2.08,3.99,2.08,6.76,0,5.55-2.78,10.06-8.32,13.52-3.12,2.08-6.59,3.12-10.4,3.12Z"/><path class="cls-2" d="m604.13,805.9c-13.17,0-25.91-3.04-38.22-9.1-12.3-6.07-21.4-15.34-27.3-27.82-2.42-4.51-3.98-9.28-4.68-14.3-.69-5.03-1.04-9.97-1.04-14.82v-5.2c0-2.78.35-5.38,1.04-7.8.7-2.43,2.6-3.64,5.72-3.64.7,0,1.04.34,1.04,1.04,0,2.08-.17,4.16-.52,6.24-.34,2.08-.52,4.33-.52,6.76,0,15.94,5.12,28.08,15.34,36.4,10.23,8.32,22.97,12.48,38.22,12.48,6.24,0,12.66-.7,19.24-2.08,6.59-1.39,12.66-3.3,18.2-5.72,22.19-9.36,41.52-22.88,57.98-40.56,16.46-17.68,30.85-37.62,43.16-59.8,12.3-22.19,23.22-44.98,32.76-68.38,9.53-23.4,18.46-45.5,26.78-66.3-7.28,11.79-15.26,22.28-23.92,31.46-8.67,9.19-18.38,18.29-29.12,27.3-6.59,5.55-13.78,10.75-21.58,15.6-7.8,4.86-16.21,7.28-25.22,7.28-3.47,0-5.9-1.12-7.28-3.38-1.39-2.25-2.08-4.94-2.08-8.06v-3.64c1.73-13.52,6.15-27.56,13.26-42.12,7.1-14.56,15.68-28.25,25.74-41.08,10.05-12.82,20.28-23.22,30.68-31.2,11.78-9.01,24.78-13.52,39-13.52h59.8c1.73,0,2.6.7,2.6,2.08,0,2.78-1.56,4.16-4.68,4.16-3.82,0-7.46,1.56-10.92,4.68-3.47,3.12-6.07,6.07-7.8,8.84-3.47,5.55-7.98,14.04-13.52,25.48-5.55,11.44-11.62,24.53-18.2,39.26-6.59,14.74-13.18,29.64-19.76,44.72-6.59,15.08-12.66,29.2-18.2,42.38-8.32,19.76-17.77,39.08-28.34,57.98-10.58,18.89-23.06,35.88-37.44,50.96-14.39,15.08-31.46,26.95-51.22,35.62-11.78,5.2-24.78,7.8-39,7.8Zm108.68-198.64c4.16,0,9.88-3.03,17.16-9.1,7.28-6.06,15.25-13.69,23.92-22.88,8.66-9.18,16.81-18.89,24.44-29.12,7.62-10.22,13.95-19.58,18.98-28.08,5.02-8.49,7.54-14.99,7.54-19.5,0-3.81-1.13-6.41-3.38-7.8-2.26-1.38-5.12-2.08-8.58-2.08-5.55,0-11.44,2-17.68,5.98-6.24,3.99-11.27,7.89-15.08,11.7-4.16,3.82-9.1,9.8-14.82,17.94-5.72,8.15-11.44,17.08-17.16,26.78-5.72,9.71-10.49,19.07-14.3,28.08-3.82,9.02-5.72,16.3-5.72,21.84,0,4.16,1.56,6.24,4.68,6.24Z"/><path class="cls-2" d="m838.13,631.7c-1.39,0-1.39-1.56,0-4.68,1.73-3.12,3.38-6.58,4.94-10.4,1.56-3.81,3.2-7.97,4.94-12.48,3.46-8.32,7.28-17.68,11.44-28.08,4.16-10.4,8.14-20.54,11.96-30.42,3.81-9.88,7.19-18.37,10.14-25.48,2.94-7.1,4.94-11.7,5.98-13.78-4.86,5.2-10.66,11.7-17.42,19.5-6.76,7.8-13.09,15.34-18.98,22.62-5.9,7.28-10.4,13-13.52,17.16-1.04,1.39-1.91,2.08-2.6,2.08s-1.04-.86-1.04-2.6c0-2.77.86-5.37,2.6-7.8,6.58-8.32,13.95-17.68,22.1-28.08,8.14-10.4,15.51-20.02,22.1-28.86,6.58-8.84,10.74-14.64,12.48-17.42,3.81-.69,9.44-1.73,16.9-3.12,7.45-1.38,12.56-3.29,15.34-5.72,1.04-1.04,2.08-1.56,3.12-1.56.69,0,1.12.61,1.3,1.82.17,1.22-.26,2.52-1.3,3.9-2.08,2.43-5.64,8.06-10.66,16.9-5.03,8.84-10.4,18.64-16.12,29.38-5.72,10.75-11.01,20.46-15.86,29.12,4.16-5.54,8.66-10.92,13.52-16.12,4.85-5.2,9.53-10.22,14.04-15.08,4.16-4.16,9.88-9.36,17.16-15.6,7.28-6.24,14.9-11.96,22.88-17.16,7.97-5.2,14.9-8.14,20.8-8.84,1.38-.34,2.68-.52,3.9-.52h2.86c7.62,0,11.44,2.78,11.44,8.32,0,4.16-2.26,9.71-6.76,16.64-2.43,3.82-6.16,10.14-11.18,18.98-5.03,8.84-10.06,18.38-15.08,28.6-5.03,10.23-9.36,19.76-13,28.6-3.64,8.84-5.46,15.34-5.46,19.5,0,4.86,2.42,7.28,7.28,7.28,5.89,0,12.39-2.94,19.5-8.84,7.1-5.89,14.82-13.43,23.14-22.62,8.32-9.18,16.64-18.98,24.96-29.38.69.7,1.04,1.91,1.04,3.64,0,2.43-.78,4.77-2.34,7.02-1.56,2.26-3.04,4.25-4.42,5.98-3.47,4.51-8.06,10.14-13.78,16.9-5.72,6.76-11.53,13.35-17.42,19.76-5.9,6.42-11.27,11.53-16.12,15.34-3.47,2.43-7.98,5.03-13.52,7.8-5.55,2.77-11.1,4.16-16.64,4.16-6.24,0-10.58-1.65-13-4.94-2.43-3.29-3.64-7.36-3.64-12.22,0-5.54,1.04-11.44,3.12-17.68,2.08-6.24,4.42-12.22,7.02-17.94,2.6-5.72,4.59-9.96,5.98-12.74,6.24-12.13,11.96-23.57,17.16-34.32,5.2-10.74,8.84-18.37,10.92-22.88,1.04-2.08,1.56-3.81,1.56-5.2,0-2.42-1.91-2.6-5.72-.52-3.82,2.08-8.41,5.2-13.78,9.36-5.38,4.16-10.32,8.24-14.82,12.22-4.51,3.99-7.46,6.68-8.84,8.06-12.83,13.52-24.01,28.52-33.54,44.98-9.54,16.47-17.6,33.37-24.18,50.7-4.51.34-9.02,1.56-13.52,3.64-4.51,2.08-7.63,3.12-9.36,3.12Z"/><path class="cls-2" d="m1024.28,625.46c-3.47,0-6.33-.7-8.58-2.08-2.26-1.38-3.38-3.98-3.38-7.8,0-4.85,1.3-10.57,3.9-17.16,2.6-6.58,5.54-13.17,8.84-19.76,3.29-6.58,5.8-11.96,7.54-16.12,2.42-4.85,5.46-11.18,9.1-18.98,3.64-7.8,7.1-15.25,10.4-22.36,3.29-7.1,5.63-12.04,7.02-14.82-4.86,5.2-10.66,11.7-17.42,19.5-6.76,7.8-13.09,15.34-18.98,22.62-5.9,7.28-10.4,13-13.52,17.16-1.04,1.39-1.91,2.08-2.6,2.08s-1.04-.86-1.04-2.6c0-2.77.86-5.37,2.6-7.8,6.58-8.32,13.95-17.68,22.1-28.08,8.14-10.4,15.51-20.02,22.1-28.86,6.58-8.84,10.74-14.64,12.48-17.42,3.81-.69,9.44-1.73,16.9-3.12,7.45-1.38,12.56-3.29,15.34-5.72,1.04-1.04,2.08-1.56,3.12-1.56.69,0,1.12.61,1.3,1.82.17,1.22-.26,2.52-1.3,3.9-2.08,2.43-5.72,8.32-10.92,17.68-5.2,9.36-10.66,19.68-16.38,30.94-5.72,11.27-11.01,21.41-15.86,30.42-4.86,9.36-9.02,18.38-12.48,27.04-3.47,8.67-5.2,14.91-5.2,18.72,0,4.86,2.42,7.28,7.28,7.28,4.5,0,10.31-2.77,17.42-8.32,7.1-5.54,14.3-12.22,21.58-20.02,7.28-7.8,13.69-14.99,19.24-21.58,1.73-2.08,3.9-4.59,6.5-7.54,2.6-2.94,4.24-4.76,4.94-5.46.69.7,1.04,1.91,1.04,3.64-.35,2.43-1.22,4.77-2.6,7.02-1.39,2.26-2.78,4.25-4.16,5.98-7.28,9.02-15.26,18.29-23.92,27.82-8.67,9.54-18.2,17.51-28.6,23.92-10.4,6.42-21.67,9.62-33.8,9.62Zm90.48-200.2c-4.86,0-8.32-1.56-10.4-4.68-1.39-1.73-2.08-3.98-2.08-6.76,0-5.54,2.6-10.05,7.8-13.52,3.81-2.08,7.28-3.12,10.4-3.12,5.2,0,8.84,1.56,10.92,4.68,1.38,1.74,2.08,3.99,2.08,6.76,0,5.55-2.78,10.06-8.32,13.52-3.12,2.08-6.59,3.12-10.4,3.12Z"/><path class="cls-2" d="m1109.55,631.7c-1.39,0-1.39-1.56,0-4.68,1.73-3.12,3.38-6.58,4.94-10.4,1.56-3.81,3.2-7.97,4.94-12.48,3.46-8.32,7.28-17.68,11.44-28.08,4.16-10.4,8.14-20.54,11.96-30.42,3.81-9.88,7.19-18.37,10.14-25.48,2.94-7.1,4.94-11.7,5.98-13.78-4.86,5.2-10.66,11.7-17.42,19.5-6.76,7.8-13.09,15.34-18.98,22.62-5.9,7.28-10.4,13-13.52,17.16-1.04,1.39-1.91,2.08-2.6,2.08s-1.04-.86-1.04-2.6c0-2.77.86-5.37,2.6-7.8,6.58-8.32,13.95-17.68,22.1-28.08,8.14-10.4,15.51-20.02,22.1-28.86,6.58-8.84,10.74-14.64,12.48-17.42,3.81-.69,9.44-1.73,16.9-3.12,7.45-1.38,12.56-3.29,15.34-5.72,1.04-1.04,2.08-1.56,3.12-1.56.69,0,1.12.61,1.3,1.82.17,1.22-.26,2.52-1.3,3.9-2.08,2.43-5.64,8.06-10.66,16.9-5.03,8.84-10.4,18.64-16.12,29.38-5.72,10.75-11.01,20.46-15.86,29.12,4.16-5.54,8.66-10.92,13.52-16.12,4.85-5.2,9.53-10.22,14.04-15.08,4.16-4.16,9.88-9.36,17.16-15.6,7.28-6.24,14.9-11.96,22.88-17.16,7.97-5.2,14.9-8.14,20.8-8.84,1.38-.34,2.68-.52,3.9-.52h2.86c7.62,0,11.44,2.78,11.44,8.32,0,4.16-2.26,9.71-6.76,16.64-2.43,3.82-6.16,10.14-11.18,18.98-5.03,8.84-10.06,18.38-15.08,28.6-5.03,10.23-9.36,19.76-13,28.6-3.64,8.84-5.46,15.34-5.46,19.5,0,4.86,2.42,7.28,7.28,7.28,5.89,0,12.39-2.94,19.5-8.84,7.1-5.89,14.82-13.43,23.14-22.62,8.32-9.18,16.64-18.98,24.96-29.38.69.7,1.04,1.91,1.04,3.64,0,2.43-.78,4.77-2.34,7.02-1.56,2.26-3.04,4.25-4.42,5.98-3.47,4.51-8.06,10.14-13.78,16.9-5.72,6.76-11.53,13.35-17.42,19.76-5.9,6.42-11.27,11.53-16.12,15.34-3.47,2.43-7.98,5.03-13.52,7.8-5.55,2.77-11.1,4.16-16.64,4.16-6.24,0-10.58-1.65-13-4.94-2.43-3.29-3.64-7.36-3.64-12.22,0-5.54,1.04-11.44,3.12-17.68,2.08-6.24,4.42-12.22,7.02-17.94,2.6-5.72,4.59-9.96,5.98-12.74,6.24-12.13,11.96-23.57,17.16-34.32,5.2-10.74,8.84-18.37,10.92-22.88,1.04-2.08,1.56-3.81,1.56-5.2,0-2.42-1.91-2.6-5.72-.52-3.82,2.08-8.41,5.2-13.78,9.36-5.38,4.16-10.32,8.24-14.82,12.22-4.51,3.99-7.46,6.68-8.84,8.06-12.83,13.52-24.01,28.52-33.54,44.98-9.54,16.47-17.6,33.37-24.18,50.7-4.51.34-9.02,1.56-13.52,3.64-4.51,2.08-7.63,3.12-9.36,3.12Z"/><path class="cls-2" d="m1184.95,805.9c-13.17,0-25.91-3.04-38.22-9.1-12.3-6.07-21.4-15.34-27.3-27.82-2.42-4.51-3.98-9.28-4.68-14.3-.69-5.03-1.04-9.97-1.04-14.82v-5.2c0-2.78.35-5.38,1.04-7.8.7-2.43,2.6-3.64,5.72-3.64.7,0,1.04.34,1.04,1.04,0,2.08-.17,4.16-.52,6.24-.34,2.08-.52,4.33-.52,6.76,0,15.94,5.12,28.08,15.34,36.4,10.23,8.32,22.97,12.48,38.22,12.48,6.24,0,12.66-.7,19.24-2.08,6.59-1.39,12.66-3.3,18.2-5.72,22.19-9.36,41.52-22.88,57.98-40.56,16.46-17.68,30.85-37.62,43.16-59.8,12.3-22.19,23.22-44.98,32.76-68.38,9.53-23.4,18.46-45.5,26.78-66.3-7.28,11.79-15.26,22.28-23.92,31.46-8.67,9.19-18.38,18.29-29.12,27.3-6.59,5.55-13.78,10.75-21.58,15.6-7.8,4.86-16.21,7.28-25.22,7.28-3.47,0-5.9-1.12-7.28-3.38-1.39-2.25-2.08-4.94-2.08-8.06v-3.64c1.73-13.52,6.15-27.56,13.26-42.12,7.1-14.56,15.68-28.25,25.74-41.08,10.05-12.82,20.28-23.22,30.68-31.2,11.78-9.01,24.78-13.52,39-13.52h59.8c1.73,0,2.6.7,2.6,2.08,0,2.78-1.56,4.16-4.68,4.16-3.82,0-7.46,1.56-10.92,4.68-3.47,3.12-6.07,6.07-7.8,8.84-3.47,5.55-7.98,14.04-13.52,25.48-5.55,11.44-11.62,24.53-18.2,39.26-6.59,14.74-13.18,29.64-19.76,44.72-6.59,15.08-12.66,29.2-18.2,42.38-8.32,19.76-17.77,39.08-28.34,57.98-10.58,18.89-23.06,35.88-37.44,50.96-14.39,15.08-31.46,26.95-51.22,35.62-11.78,5.2-24.78,7.8-39,7.8Zm108.68-198.64c4.16,0,9.88-3.03,17.16-9.1,7.28-6.06,15.25-13.69,23.92-22.88,8.66-9.18,16.81-18.89,24.44-29.12,7.62-10.22,13.95-19.58,18.98-28.08,5.02-8.49,7.54-14.99,7.54-19.5,0-3.81-1.13-6.41-3.38-7.8-2.26-1.38-5.12-2.08-8.58-2.08-5.55,0-11.44,2-17.68,5.98-6.24,3.99-11.27,7.89-15.08,11.7-4.16,3.82-9.1,9.8-14.82,17.94-5.72,8.15-11.44,17.08-17.16,26.78-5.72,9.71-10.49,19.07-14.3,28.08-3.82,9.02-5.72,16.3-5.72,21.84,0,4.16,1.56,6.24,4.68,6.24Z"/></g><g><path class="cls-2" d="m647.06,1135.68c-1.39,0-1.39-1.39,0-4.16,1.73-3.12,3.38-6.58,4.94-10.4,1.56-3.81,3.2-7.97,4.94-12.48,3.46-8.32,7.28-17.68,11.44-28.08,4.16-10.4,8.14-20.54,11.96-30.42,3.81-9.88,7.19-18.37,10.14-25.48,2.94-7.1,4.94-11.7,5.98-13.78-4.86,5.2-10.66,11.7-17.42,19.5-6.76,7.8-13.09,15.34-18.98,22.62-5.9,7.28-10.4,13-13.52,17.16-1.04,1.39-1.91,2.08-2.6,2.08s-1.04-.86-1.04-2.6c0-2.77.86-5.37,2.6-7.8,6.58-8.32,13.95-17.68,22.1-28.08,8.14-10.4,15.51-20.02,22.1-28.86,6.58-8.84,10.74-14.64,12.48-17.42,3.81-.69,9.44-1.73,16.9-3.12,7.45-1.38,12.56-3.29,15.34-5.72,1.04-1.04,2.08-1.56,3.12-1.56.69,0,1.12.61,1.3,1.82.17,1.22-.26,2.52-1.3,3.9-2.08,2.08-5.12,6.59-9.1,13.52-3.99,6.94-8.41,14.91-13.26,23.92-4.86,9.02-9.54,17.68-14.04,26,3.46-5.2,8.06-11.35,13.78-18.46,5.72-7.1,12.04-14.04,18.98-20.8,6.93-6.76,13.95-12.39,21.06-16.9,7.1-4.5,13.78-6.76,20.02-6.76,4.5,0,8.32.96,11.44,2.86,3.12,1.91,5.54,5.29,7.28,10.14,1.04,2.43,1.56,5.2,1.56,8.32,0,5.9-1.48,11.53-4.42,16.9-2.95,5.38-5.12,9.45-6.5,12.22-.35,1.04-1.56,2-3.64,2.86-2.08.87-2.95.61-2.6-.78.34-1.73.6-3.46.78-5.2.17-1.73.26-3.64.26-5.72,0-5.89-1.13-11.26-3.38-16.12-2.26-4.85-6.33-7.28-12.22-7.28-5.55,0-12.31,3.47-20.28,10.4-7.98,6.94-15.95,14.91-23.92,23.92-10.06,11.79-18.03,22.97-23.92,33.54-5.9,10.58-10.75,20.89-14.56,30.94-2.08,5.55-4.16,11.01-6.24,16.38-2.08,5.38-3.64,9.62-4.68,12.74-4.51.34-9.02,1.47-13.52,3.38-4.51,1.9-7.63,2.86-9.36,2.86Z"/><path class="cls-2" d="m856.1,1129.96c-3.47,0-6.42-.7-8.84-2.08-2.43-1.38-3.64-3.98-3.64-7.8,0-4.85,1.21-10.4,3.64-16.64,2.42-6.24,5.2-12.39,8.32-18.46,3.12-6.06,5.89-11,8.32-14.82-12.14,12.83-24.79,24.96-37.96,36.4-6.59,5.55-13.87,10.75-21.84,15.6-7.98,4.86-16.47,7.28-25.48,7.28-3.47,0-5.9-1.12-7.28-3.38-1.39-2.25-2.08-4.94-2.08-8.06,0-1.73.17-2.94.52-3.64,1.73-13.52,6.06-27.56,13-42.12,6.93-14.56,15.42-28.25,25.48-41.08,10.05-12.82,20.28-23.22,30.68-31.2,11.78-9.01,24.78-13.52,39-13.52h59.8c1.73,0,2.6.7,2.6,2.08,0,2.78-1.56,4.16-4.68,4.16-3.47,0-6.94,2.17-10.4,6.5-3.47,4.34-6.07,7.89-7.8,10.66-2.43,3.82-6.24,10.23-11.44,19.24-5.2,9.02-10.49,18.81-15.86,29.38-5.38,10.58-9.97,20.37-13.78,29.38-3.82,9.02-5.72,15.6-5.72,19.76,0,4.86,2.42,7.28,7.28,7.28,5.2,0,11.09-2.42,17.68-7.28,6.58-4.85,13.26-10.83,20.02-17.94,6.76-7.1,13-14.21,18.72-21.32,5.72-7.1,10.31-12.74,13.78-16.9,2.08,2.08,1.99,4.94-.26,8.58-2.26,3.64-4.25,6.5-5.98,8.58-6.94,9.02-14.91,18.29-23.92,27.82-9.02,9.54-18.81,17.51-29.38,23.92-10.58,6.42-21.41,9.62-32.5,9.62Zm-56.16-18.2c4.16,0,9.96-3.03,17.42-9.1,7.45-6.06,15.51-13.69,24.18-22.88,8.66-9.18,16.81-18.89,24.44-29.12,7.62-10.22,13.95-19.58,18.98-28.08,5.02-8.49,7.54-14.99,7.54-19.5,0-3.81-1.13-6.41-3.38-7.8-2.26-1.38-5.12-2.08-8.58-2.08-5.55,0-11.53,2-17.94,5.98-6.42,3.99-11.53,7.89-15.34,11.7-4.16,3.82-9.1,9.8-14.82,17.94-5.72,8.15-11.36,17.08-16.9,26.78-5.55,9.71-10.23,19.07-14.04,28.08-3.82,9.02-5.72,16.3-5.72,21.84,0,4.16,1.38,6.24,4.16,6.24Z"/><path class="cls-2" d="m773.41,1310.4c-13.17,0-25.91-3.04-38.22-9.1-12.3-6.07-21.4-15.34-27.3-27.82-2.08-4.51-3.46-9.28-4.16-14.3-.69-5.03-1.04-9.97-1.04-14.82v-5.72c0-2.78.35-5.29,1.04-7.54.7-2.26,2.43-3.38,5.2-3.38,1.04,0,1.56.34,1.56,1.04,0,2.08-.26,4.16-.78,6.24-.52,2.08-.78,4.33-.78,6.76,0,15.94,5.12,28.08,15.34,36.4,10.23,8.32,22.97,12.48,38.22,12.48,6.24,0,12.66-.7,19.24-2.08,6.59-1.39,12.83-3.3,18.72-5.72,21.84-9.36,40.91-22.54,57.2-39.52,16.3-16.99,30.51-36.23,42.64-57.72,12.14-21.5,22.88-43.51,32.24-66.04,10.05-24.61,19.67-48.96,28.86-73.06,9.18-24.09,19.5-47.75,30.94-70.98,10.74-21.49,22.18-37.61,34.32-48.36,12.13-10.74,24.26-16.12,36.4-16.12,3.12,0,6.15.87,9.1,2.6,2.94,1.74,4.24,4.51,3.9,8.32l-1.04,14.56c0,1.04-.7,1.56-2.08,1.56-.35,0-.52-.17-.52-.52,0-4.16-1.48-7.02-4.42-8.58-2.95-1.56-5.81-2.34-8.58-2.34-11.79,0-22.28,4.08-31.46,12.22-9.19,8.15-17.25,18.64-24.18,31.46-6.94,12.83-12.83,26.26-17.68,40.3-4.86,14.04-8.84,26.96-11.96,38.74,2.42-2.08,6.84-6.41,13.26-13,6.41-6.58,13.95-13.69,22.62-21.32,8.66-7.62,17.5-14.21,26.52-19.76,9.01-5.54,17.33-8.32,24.96-8.32,4.5,0,7.19,2,8.06,5.98.86,3.99.95,7.72.26,11.18-1.74,12.83-6.07,26.7-13,41.6-6.94,14.91-15.86,29.04-26.78,42.38-10.92,13.35-23.06,24.18-36.4,32.5-13.35,8.32-27.3,12.48-41.86,12.48-1.74,0-4.08-.09-7.02-.26-2.95-.18-4.77-.61-5.46-1.3-7.28,21.84-16.64,44.2-28.08,67.08-11.44,22.88-25.22,43.59-41.34,62.14-16.12,18.54-35.27,32.5-57.46,41.86-11.78,5.2-24.78,7.8-39,7.8Zm186.16-186.16c5.2,0,11.18-2.16,17.94-6.5,6.76-4.33,11.87-8.23,15.34-11.7,4.16-3.81,9.1-9.79,14.82-17.94,5.72-8.14,11.44-17.07,17.16-26.78,5.72-9.7,10.48-19.06,14.3-28.08,3.81-9.01,5.72-16.29,5.72-21.84,0-1.73-.35-3.29-1.04-4.68-.7-1.38-1.91-2.08-3.64-2.08-3.12,0-7.28,1.91-12.48,5.72-5.2,3.82-10.66,8.41-16.38,13.78-5.72,5.38-11.01,10.58-15.86,15.6-4.86,5.03-8.32,8.76-10.4,11.18-3.47,4.16-8.15,10.23-14.04,18.2-5.9,7.98-11.1,16.04-15.6,24.18-4.51,8.15-6.76,15-6.76,20.54,0,6.94,3.64,10.4,10.92,10.4Z"/><path class="cls-2" d="m1147.81,1131.52c-5.2,0-9.8-1.04-13.78-3.12-3.99-2.08-5.98-5.89-5.98-11.44,0-3.12.69-6.58,2.08-10.4,3.12-7.97,7.36-17.68,12.74-29.12,5.37-11.44,10.83-22.62,16.38-33.54,5.54-10.92,9.88-19.84,13-26.78,2.08-4.16,3.12-7.1,3.12-8.84,0-3.12-1.74-3.81-5.2-2.08-3.47,1.74-7.28,4.16-11.44,7.28-4.16,3.12-7.28,5.55-9.36,7.28-9.02,8.32-18.46,18.12-28.34,29.38-9.88,11.27-18.9,23.06-27.04,35.36-8.15,12.31-14.48,24.53-18.98,36.66-.35,2.08-2.6,3.82-6.76,5.2-4.16,1.38-7.98,2.08-11.44,2.08-5.54,0-7.62-1.73-6.24-5.2,7.97-18.02,16.2-37.96,24.7-59.8,8.49-21.84,18.11-44.2,28.86-67.08,7.97-17.33,16.9-35.18,26.78-53.56,9.88-18.37,20.88-35.96,33.02-52.78,12.13-16.81,25.48-31.63,40.04-44.46,12.82-11.09,26.95-20.19,42.38-27.3,15.42-7.1,32.15-10.66,50.18-10.66,7.97,0,14.9,1.65,20.8,4.94,5.89,3.3,9.18,9.1,9.88,17.42v4.68c0,4.86-.52,9.71-1.56,14.56-.35,1.39-1.74,2.08-4.16,2.08-1.04,0-1.39-.17-1.04-.52,1.38-9.01-.96-15.42-7.02-19.24-6.07-3.81-13.78-5.72-23.14-5.72-16.99,0-32.59,3.12-46.8,9.36-14.22,6.24-27.39,14.56-39.52,24.96-18.72,16.3-35.02,37.1-48.88,62.4-13.87,25.31-25.83,51.14-35.88,77.48-4.86,12.83-9.62,25.66-14.3,38.48-4.68,12.83-9.1,24.79-13.26,35.88,15.6-20.8,30.59-38.65,44.98-53.56,14.38-14.9,26.95-25.48,37.7-31.72,8.66-4.85,16.46-7.28,23.4-7.28,6.58,0,9.88,2.78,9.88,8.32,0,4.86-2.43,11.1-7.28,18.72-2.43,3.82-6.16,10.23-11.18,19.24-5.03,9.02-10.23,18.81-15.6,29.38-5.38,10.58-9.97,20.37-13.78,29.38-3.82,9.02-5.72,15.6-5.72,19.76,0,5.55,2.42,8.32,7.28,8.32,2.77,0,5.98-.86,9.62-2.6,3.64-1.73,6.32-3.29,8.06-4.68,9.36-6.93,18.54-15.42,27.56-25.48,9.01-10.05,16.64-18.89,22.88-26.52.34-.34.52.18.52,1.56s-.26,3.38-.78,5.98c-.52,2.6-1.65,4.77-3.38,6.5-3.82,5.2-7.72,10.14-11.7,14.82-3.99,4.68-7.89,9.28-11.7,13.78-6.59,7.63-14.48,14.91-23.66,21.84-9.19,6.94-19.5,10.4-30.94,10.4Z"/><path class="cls-2" d="m1241.4,1129.96c-3.47,0-6.33-.7-8.58-2.08-2.26-1.38-3.38-3.98-3.38-7.8,0-4.85,1.3-10.57,3.9-17.16,2.6-6.58,5.54-13.17,8.84-19.76,3.29-6.58,5.8-11.96,7.54-16.12,2.42-4.85,5.46-11.18,9.1-18.98,3.64-7.8,7.1-15.25,10.4-22.36,3.29-7.1,5.63-12.04,7.02-14.82-4.86,5.2-10.66,11.7-17.42,19.5-6.76,7.8-13.09,15.34-18.98,22.62-5.9,7.28-10.4,13-13.52,17.16-1.04,1.39-1.91,2.08-2.6,2.08s-1.04-.86-1.04-2.6c0-2.77.86-5.37,2.6-7.8,6.58-8.32,13.95-17.68,22.1-28.08,8.14-10.4,15.51-20.02,22.1-28.86,6.58-8.84,10.74-14.64,12.48-17.42,3.81-.69,9.44-1.73,16.9-3.12,7.45-1.38,12.56-3.29,15.34-5.72,1.04-1.04,2.08-1.56,3.12-1.56.69,0,1.12.61,1.3,1.82.17,1.22-.26,2.52-1.3,3.9-2.08,2.43-5.72,8.32-10.92,17.68-5.2,9.36-10.66,19.68-16.38,30.94-5.72,11.27-11.01,21.41-15.86,30.42-4.86,9.36-9.02,18.38-12.48,27.04-3.47,8.67-5.2,14.91-5.2,18.72,0,4.86,2.42,7.28,7.28,7.28,4.5,0,10.31-2.77,17.42-8.32,7.1-5.54,14.3-12.22,21.58-20.02,7.28-7.8,13.69-14.99,19.24-21.58,1.73-2.08,3.9-4.59,6.5-7.54,2.6-2.94,4.24-4.76,4.94-5.46.69.7,1.04,1.91,1.04,3.64-.35,2.43-1.22,4.77-2.6,7.02-1.39,2.26-2.78,4.25-4.16,5.98-7.28,9.02-15.26,18.29-23.92,27.82-8.67,9.54-18.2,17.51-28.6,23.92-10.4,6.42-21.67,9.62-33.8,9.62Zm90.48-200.2c-4.86,0-8.32-1.56-10.4-4.68-1.39-1.73-2.08-3.98-2.08-6.76,0-5.54,2.6-10.05,7.8-13.52,3.81-2.08,7.28-3.12,10.4-3.12,5.2,0,8.84,1.56,10.92,4.68,1.38,1.74,2.08,3.99,2.08,6.76,0,5.55-2.78,10.06-8.32,13.52-3.12,2.08-6.59,3.12-10.4,3.12Z"/><path class="cls-2" d="m1345.4,1132.56c-12.83,0-21.84-2.43-27.04-7.28-5.2-4.85-7.8-11.09-7.8-18.72,0-10.05,3.29-21.23,9.88-33.54,6.58-12.3,12.82-22.62,18.72-30.94,5.89-7.97,12.56-15.51,20.02-22.62,7.45-7.1,15.51-13.26,24.18-18.46,5.54-3.46,13.08-7.19,22.62-11.18,9.53-3.98,17.59-5.98,24.18-5.98,7.97,0,13.52,1.82,16.64,5.46,3.12,3.64,4.68,8.06,4.68,13.26,0,4.16-.7,8.41-2.08,12.74-1.39,4.34-2.95,8.41-4.68,12.22-1.04,2.08-2.6,3.56-4.68,4.42-2.08.87-3.12.61-3.12-.78,0-1.73.17-3.29.52-4.68.34-1.38.52-2.94.52-4.68,0-6.58-1.48-13.08-4.42-19.5-2.95-6.41-7.37-9.62-13.26-9.62-6.24,0-13,2.17-20.28,6.5-7.28,4.34-12.31,8.06-15.08,11.18-9.02,9.36-17.77,20.98-26.26,34.84-8.5,13.87-14.65,27.04-18.46,39.52-2.43,7.28-3.64,13.52-3.64,18.72,0,5.9,1.56,10.06,4.68,12.48,3.12,2.43,6.93,3.64,11.44,3.64,3.46,0,7.19-.52,11.18-1.56,3.98-1.04,8.23-2.25,12.74-3.64,10.4-3.46,20.88-8.92,31.46-16.38,10.57-7.45,20.19-15.42,28.86-23.92,8.66-8.49,15.25-15.86,19.76-22.1.69.7,1.04,1.74,1.04,3.12,0,1.74-.7,3.73-2.08,5.98-1.39,2.26-2.43,4.08-3.12,5.46-7.28,9.71-16.82,19.68-28.6,29.9-11.79,10.23-24.53,18.81-38.22,25.74-13.7,6.93-27.13,10.4-40.3,10.4Z"/><path class="cls-2" d="m1478.51,1136.72c-6.24,0-12.83-.87-19.76-2.6-6.94-1.74-13.09-4.6-18.46-8.58-5.38-3.98-8.93-9.44-10.66-16.38-.34-1.04-.52-2.6-.52-4.68,0-4.85,1.12-10.22,3.38-16.12,2.25-5.89,5.11-10.05,8.58-12.48,1.38-.69,2.51-.69,3.38,0,.86.7.95,1.39.26,2.08-.35,1.04-.87,2.34-1.56,3.9-.7,1.56-1.22,3.21-1.56,4.94-1.04,9.02.86,16.99,5.72,23.92,2.08,2.78,4.59,5.38,7.54,7.8,2.94,2.43,5.8,4.51,8.58,6.24,2.42,1.39,5.37,2.34,8.84,2.86,3.46.52,6.93.78,10.4.78,5.54,0,10.92-.69,16.12-2.08,5.2-1.38,9.01-3.64,11.44-6.76,4.5-5.54,6.76-11.78,6.76-18.72,0-5.2-1.39-10.74-4.16-16.64-2.78-5.89-7.11-12.13-13-18.72-3.82-4.16-7.46-8.66-10.92-13.52-3.47-4.85-5.72-10.05-6.76-15.6-.35-1.04-.61-2.08-.78-3.12-.18-1.04-.26-2.08-.26-3.12-4.51,6.59-9.1,12.74-13.78,18.46-4.68,5.72-8.76,10.66-12.22,14.82-1.39,2.08-2.6,3.12-3.64,3.12-.7,0-1.04-.69-1.04-2.08,0-3.12,1.38-6.41,4.16-9.88,2.77-3.12,5.89-7.02,9.36-11.7,3.46-4.68,6.24-8.4,8.32-11.18,5.89-8.66,10.31-15.51,13.26-20.54,2.94-5.02,6.15-9.62,9.62-13.78,3.81-4.5,8.58-8.14,14.3-10.92,5.72-2.77,11.7-4.16,17.94-4.16,7.28,0,13.95,1.13,20.02,3.38,6.06,2.26,9.27,7.89,9.62,16.9,0,4.16-.78,8.41-2.34,12.74-1.56,4.34-3.21,8.41-4.94,12.22-1.04,2.08-2.52,3.56-4.42,4.42-1.91.87-2.86.61-2.86-.78s.17-2.94.52-4.68c.34-1.73.52-3.29.52-4.68,0-5.89-1.04-11.09-3.12-15.6-1.74-4.85-4.34-8.4-7.8-10.66-3.47-2.25-7.11-3.38-10.92-3.38-5.55,0-10.92,2.17-16.12,6.5-5.2,4.34-7.8,9.97-7.8,16.9v2.6c0,1.04.17,1.91.52,2.6,1.38,5.55,5.54,11.79,12.48,18.72,6.93,6.94,12.3,13,16.12,18.2,6.58,9.02,9.88,18.2,9.88,27.56s-2.69,17.94-8.06,25.74c-5.38,7.8-12.48,14.04-21.32,18.72s-18.46,7.02-28.86,7.02Z"/></g></g></svg>